Coordinates
version=1
nRows=10
nColumns=63
inDegrees=yes

Units are S.I. units (second, meters, Newtons, ...)
If the header above contains a line with 'inDegrees', this indicates whether rotational values are in degrees (yes) or radians (no).

endheader
time	pelvis_tilt	pelvis_list	pelvis_rotation	pelvis_tx	pelvis_ty	pelvis_tz	hip_flexion_r	hip_adduction_r	hip_rotation_r	knee_angle_r	knee_angle_r_beta	ankle_angle_r	subtalar_angle_r	mtp_angle_r	hip_flexion_l	hip_adduction_l	hip_rotation_l	knee_angle_l	knee_angle_l_beta	ankle_angle_l	subtalar_angle_l	mtp_angle_l	L5_S1_Flex_Ext	L5_S1_Lat_Bending	L5_S1_axial_rotation	L4_L5_Flex_Ext	L4_L5_Lat_Bending	L4_L5_axial_rotation	L3_L4_Flex_Ext	L3_L4_Lat_Bending	L3_L4_axial_rotation	L2_L3_Flex_Ext	L2_L3_Lat_Bending	L2_L3_axial_rotation	L1_L2_Flex_Ext	L1_L2_Lat_Bending	L1_L2_axial_rotation	L1_T12_Flex_Ext	L1_T12_Lat_Bending	L1_T12_axial_rotation	Abs_r3	Abs_r2	Abs_r1	Abs_t1	Abs_t2	neck_flexion	neck_bending	neck_rotation	arm_flex_r	arm_add_r	arm_rot_r	elbow_flex_r	pro_sup_r	wrist_flex_r	wrist_dev_r	arm_flex_l	arm_add_l	arm_rot_l	elbow_flex_l	pro_sup_l	wrist_flex_l	wrist_dev_l
      1.48648649	     -0.48231635	      4.79237696	     87.18538435	     -0.09867238	      0.81708316	      0.70498088	     -2.40610291	     -4.45299850	    -12.56874473	     16.67724841	      0.29107290	     29.65869176	     13.78908006	      0.00000000	     -1.75629897	      0.89778465	    -16.17385395	     15.00127544	      0.26182165	     33.29480278	     14.17852982	      0.00000000	     -0.69415094	      0.15174102	      7.71110439	     -1.28910771	      0.20181555	      8.19304842	     -1.14042058	      0.36894311	      8.19304842	     -0.79334511	      0.36894311	      6.74721635	     -0.64458856	      0.30943028	      6.26527232	     -0.39663785	      0.23504684	      5.78332830	     -4.95825076	      1.71652474	     42.88684931	      0.00000000	      0.00000000	      2.37764090	    -13.78515144	    -35.49109990	    -23.86850465	     -5.28418337	    -59.96237469	    125.53460254	     72.08063974	      2.23857304	     12.20312628	     65.14966642	     18.35866939	    166.62830159	      0.07592746	      0.93994154	    -69.83341554	    -24.27078751
      1.51351351	     -0.55161761	      4.90976734	     87.50921344	     -0.09936029	      0.81683370	      0.70493751	     -2.66660788	     -4.53304928	    -13.00375647	     16.58696442	      0.28949714	     29.74931296	     13.99722189	      0.00000000	     -1.85911402	      0.99879653	    -15.74943938	     15.00368898	      0.26186377	     33.36337392	     14.26082377	      0.00000000	     -0.69420389	      0.19829236	      7.81187550	     -1.28920605	      0.26372884	      8.30011772	     -1.14050758	      0.48212804	      8.30011772	     -0.79340563	      0.48212804	      6.83539106	     -0.64463774	      0.40435778	      6.34714884	     -0.39666811	      0.30715486	      5.85890662	     -4.95862900	      2.24312281	     43.44730795	      0.00000000	      0.00000000	      2.16322585	    -14.32094786	    -35.34216154	    -24.75493187	     -2.09453388	    -64.79000880	    126.90765398	     72.87385408	      9.01604429	     13.66150105	     64.22527903	     17.93306720	    164.88766463	      0.07660584	      0.90389963	    -69.83584073	    -24.29403750
      1.54054054	     -0.54915719	      4.91820305	     88.01401425	     -0.10060520	      0.81689958	      0.70454186	     -2.91784841	     -4.56841643	    -13.94486592	     16.37319747	      0.28576620	     29.64321601	     14.61714178	      0.00000000	     -1.83442673	      1.03590919	    -15.16683146	     15.00680904	      0.26191823	     33.38686093	     14.17485307	      0.00000000	     -0.68750194	      0.24636465	      7.80269208	     -1.27675984	      0.32766498	      8.29036033	     -1.12949693	      0.59901100	      8.29036033	     -0.78574596	      0.59901100	      6.82735557	     -0.63841430	      0.50238679	      6.33968731	     -0.39283861	      0.38161884	      5.85201906	     -4.91075758	      2.78692617	     43.39623253	      0.00000000	      0.00000000	      2.26451977	    -14.49834339	    -34.68197647	    -25.29263821	      1.38562091	    -68.72301671	    127.94140325	     74.08389798	     14.16472632	     14.92366371	     62.87810137	     17.36144759	    162.47323226	      0.07899986	      0.84541063	    -69.83140242	    -24.26975036
      1.56756757	     -0.47968920	      4.86362200	     88.45029410	     -0.10214579	      0.81720505	      0.70467538	     -3.00382729	     -4.53318389	    -14.53833060	     16.25136849	      0.28363989	     29.31240611	     14.83728807	      0.00000000	     -1.67884285	      0.99945661	    -14.84564289	     15.04316959	      0.26255284	     33.39832405	     14.23157375	      0.00000000	     -0.68763034	      0.29977144	      7.70460477	     -1.27699831	      0.39869602	      8.18614257	     -1.12970789	      0.72886429	      8.18614257	     -0.78589272	      0.72886429	      6.74152917	     -0.63853354	      0.61129393	      6.25999137	     -0.39291198	      0.46434597	      5.77845358	     -4.91167478	      3.39107452	     42.85070033	      0.00000000	      0.00000000	      2.51014829	    -15.02181151	    -33.69985962	    -25.80377972	      4.61133698	    -71.05826448	    128.57756545	     74.34224228	     15.47799584	     15.42188099	     61.37263330	     16.63539072	    159.10581626	      0.08262494	      0.79757368	    -69.82360130	    -24.21207870
      1.59459459	     -0.39042024	      4.75674232	     89.08975004	     -0.10405550	      0.81760242	      0.70529075	     -3.01017871	     -4.48942112	    -15.32913139	     16.19675664	      0.28268673	     28.87423934	     15.00198065	      0.00000000	     -1.41626404	      0.94010961	    -14.35618471	     15.05393957	      0.26274081	     33.34295571	     14.41274659	      0.00000000	     -0.68112816	      0.34690766	      7.43827551	     -1.26492311	      0.46138718	      7.90316773	     -1.11902546	      0.84347128	      7.90316773	     -0.77846138	      0.84347128	      6.50849107	     -0.63249561	      0.70741410	      6.04359885	     -0.38919663	      0.53735996	      5.57870663	     -4.86523035	      3.92428880	     41.36945691	      0.00000000	      0.00000000	      2.77099302	    -15.87706078	    -32.31820786	    -25.92952318	      6.57262885	    -71.70104120	    128.37397745	     74.90246497	     14.95168500	     16.55080134	     59.99229374	     15.44333460	    156.97854029	      0.08522054	      0.77285121	    -69.81469303	    -24.15396526
      1.62162162	     -0.25333472	      4.62517680	     89.74388698	     -0.10622096	      0.81789710	      0.70577278	     -3.02681308	     -4.45437803	    -16.42400997	     16.10100129	      0.28101549	     28.44067746	     15.44648258	      0.00000000	     -1.08662906	      0.86219222	    -13.65852726	     15.16621762	      0.26470043	     33.33455586	     14.36083936	      0.00000000	     -0.66130785	      0.38984086	      7.06157185	     -1.22811481	      0.51848834	      7.50292009	     -1.08646266	      0.94785906	      7.50292009	     -0.75580874	      0.94785906	      6.17887537	     -0.61409047	      0.79496348	      5.73752713	     -0.37787130	      0.60386349	      5.29617889	     -4.72365583	      4.40995775	     39.27434416	      0.00000000	      0.00000000	      3.17197713	    -16.88682675	    -30.72848024	    -26.27638376	      6.64138005	    -69.21769098	    128.22293976	     77.65160663	      6.17746975	     20.48412725	     58.65897055	     13.88627907	    156.70418173	      0.08659438	      0.79896961	    -69.80299811	    -24.15468944
      1.64864865	     -0.20110004	      4.42001642	     89.88843725	     -0.10751192	      0.81831093	      0.70571466	     -2.88076985	     -4.47009994	    -16.56978679	     16.03551560	      0.27987254	     28.03277508	     15.23726485	      0.00000000	     -0.89725952	      0.87406914	    -13.61345056	     15.03077247	      0.26233647	     33.25763300	     14.56620939	      0.00000000	     -0.63172560	      0.40265460	      6.73348104	     -1.17317761	      0.53553062	      7.15432360	     -1.03786199	      0.97901439	      7.15432360	     -0.72199919	      0.97901439	      5.89179591	     -0.58662039	      0.82109326	      5.47095334	     -0.36096801	      0.62371197	      5.05011078	     -4.51235278	      4.55490936	     37.44960149	      0.00000000	      0.00000000	      3.75093207	    -17.78292256	    -29.18371197	    -26.35292429	      4.66944709	    -65.17618227	    126.25756306	     81.78233850	     -1.12228171	     22.85958152	     57.25562864	     12.16780437	    157.58153981	      0.08815682	      0.86403272	    -69.78817172	    -24.18367819
      1.67567568	     -0.21166304	      4.11533516	     89.92670117	     -0.10829884	      0.81882057	      0.70538065	     -2.62861999	     -4.50270761	    -16.45916021	     15.93781720	      0.27816739	     27.67936535	     14.82155764	      0.00000000	     -0.65324156	      0.92553706	    -13.75509356	     14.87203162	      0.25956592	     33.09955714	     14.84557392	      0.00000000	     -0.57867051	      0.39479236	      6.41288217	     -1.07464900	      0.52507384	      6.81368731	     -0.95069778	      0.95989815	      6.81368731	     -0.66136253	      0.95989815	      5.61127190	     -0.53735344	      0.80506058	      5.21046676	     -0.33065233	      0.61153337	      4.80966163	     -4.13338558	      4.46597015	     35.66652677	      0.00000000	      0.00000000	      4.29000164	    -18.27609222	    -27.49374490	    -25.93350509	      1.37266133	    -60.83589237	    122.86003164	     83.42187155	     -3.91262235	     24.80493433	     55.81017787	     10.38374826	    158.41584066	      0.08989373	      0.93582221	    -69.77172985	    -24.18952570
      1.70270270	     -0.21486013	      3.90357357	     89.72770026	     -0.10881785	      0.81957805	      0.70537124	     -2.39690226	     -4.52515933	    -16.00448853	     15.86428899	      0.27688408	     27.40619107	     14.33049548	      0.00000000	     -0.51057589	      0.98881314	    -14.02580970	     14.68454331	      0.25629363	     32.83162439	     14.96545292	      0.00000000	     -0.53646439	      0.38928554	      5.99815479	     -0.99626802	      0.51774976	      6.37303946	     -0.88135735	      0.94650885	      6.37303946	     -0.61312515	      0.94650885	      5.24838544	     -0.49816083	      0.79383106	      4.87350076	     -0.30653575	      0.60300329	      4.49861609	     -3.83191151	      4.40367584	     33.35993747	      0.00000000	      0.00000000	      4.79728192	    -18.26178772	    -25.05946219	    -24.77434903	     -2.82153390	    -55.62451597	    118.12955603	     84.55104457	     -4.74559222	     26.33026823	     54.11342586	      8.05083089	    158.43883823	      0.09229796	      1.00685646	    -69.75282816	    -24.15334765
      1.72972973	     -0.17472391	      3.58320872	     89.40641591	     -0.10957708	      0.82026544	      0.70495372	     -2.04005686	     -4.52096884	    -15.39052431	     15.79902970	      0.27574509	     27.23521343	     13.86000325	      0.00000000	     -0.33172727	      1.06710918	    -14.25502195	     14.38289784	      0.25102892	     32.36265279	     14.91472082	      0.00000000	     -0.48107732	      0.40615715	      5.34827669	     -0.89340869	      0.54018901	      5.68254399	     -0.79036193	      0.98753049	      5.68254399	     -0.54982327	      0.98753049	      4.67974211	     -0.44672840	      0.82823565	      4.34547481	     -0.27488758	      0.62913742	      4.01120752	     -3.43628718	      4.59453087	     29.74551049	      0.00000000	      0.00000000	      5.73176665	    -18.43264905	    -20.78279078	    -23.03898520	     -7.33398924	    -49.00878234	    111.41513048	     85.53471291	     -4.29793858	     27.30658456	     51.22276565	      4.46035913	    157.91777431	      0.09776718	      1.11575254	    -69.72690244	    -24.09310038
